<svg width="35" height="35" viewBox="0 0 35 35" fill="none" xmlns="http://www.w3.org/2000/svg">
<path d="M17.4323 0C7.80596 0 0 8.02281 0 17.9197C0 25.8373 4.99488 32.5543 11.9213 34.9239C12.7925 35.0897 13.1124 34.5351 13.1124 34.0618C13.1124 33.6345 13.0962 32.2228 13.0888 30.7255C8.23895 31.8095 7.21561 28.6112 7.21561 28.6112C6.42264 26.5399 5.28008 25.9892 5.28008 25.9892C3.69852 24.877 5.3993 24.8997 5.3993 24.8997C7.14984 25.0262 8.0716 26.7464 8.0716 26.7464C9.62637 29.486 12.1496 28.6939 13.1444 28.2362C13.3008 27.0778 13.7527 26.2874 14.2512 25.84C10.3793 25.3867 6.30889 23.8502 6.30889 16.9839C6.30889 15.0275 6.98988 13.4289 8.1051 12.174C7.92408 11.7226 7.32744 9.90002 8.27395 7.43169C8.27395 7.43169 9.73779 6.95006 13.0691 9.26857C14.4595 8.8714 15.9508 8.67239 17.4323 8.66565C18.9138 8.67239 20.4062 8.8714 21.7994 9.26857C25.1267 6.95006 26.5885 7.43169 26.5885 7.43169C27.5373 9.90002 26.9404 11.7226 26.7594 12.174C27.8771 13.4289 28.5534 15.0274 28.5534 16.9839C28.5534 23.8665 24.4754 25.3821 20.5937 25.8256C21.2189 26.3817 21.776 27.4723 21.776 29.1441C21.776 31.5417 21.7558 33.4715 21.7558 34.0618C21.7558 34.5386 22.0695 35.0974 22.9533 34.9215C29.8759 32.5493 34.8645 25.8346 34.8645 17.9197C34.8645 8.02281 27.0596 0 17.4323 0Z" fill="white"/>
</svg>