<svg width="35" height="35" viewBox="0 0 35 35" fill="none" xmlns="http://www.w3.org/2000/svg">
<path fill-rule="evenodd" clip-rule="evenodd" d="M6.0354 6.13623C7.1702 7.02067 7.59591 6.95319 9.72691 6.81679L29.8165 5.65961C30.2426 5.65961 29.8883 5.25185 29.7462 5.1841L26.4098 2.8703C25.7704 2.39417 24.9187 1.8489 23.2863 1.98531L3.83348 3.34636C3.12404 3.41384 2.98235 3.75412 3.26486 4.02686L6.0354 6.13623ZM7.24155 10.6275V30.9047C7.24155 31.9944 7.80923 32.4021 9.08694 32.3347L31.1654 31.1092C32.4438 31.0418 32.5862 30.2922 32.5862 29.4069V9.26582C32.5862 8.382 32.2318 7.90539 31.4492 7.97342L8.37699 9.26582C7.5255 9.33447 7.24147 9.74306 7.24147 10.6275H7.24155ZM29.0374 11.7152C29.1789 12.3282 29.0374 12.9407 28.3971 13.0096L27.3334 13.2129V28.1828C26.4098 28.659 25.558 28.9313 24.8483 28.9313C23.712 28.9313 23.4274 28.5908 22.5763 27.5707L15.6179 17.0917V27.2304L17.8198 27.707C17.8198 27.707 17.8198 28.9313 16.0433 28.9313L11.1459 29.2038C11.0037 28.9313 11.1459 28.2514 11.6427 28.1152L12.9207 27.7754V14.37L11.1463 14.2336C11.004 13.6206 11.3584 12.7367 12.353 12.6682L17.6068 12.3284L24.8483 22.9439V13.5531L23.002 13.3499C22.8603 12.6005 23.4274 12.0563 24.1374 11.9888L29.0374 11.7152ZM2.20019 1.50924L22.4342 0.0798128C24.919 -0.124618 25.5583 0.0123348 27.1201 1.10059L33.579 5.45546C34.6448 6.20433 35 6.40821 35 7.22455V31.1092C35 32.6061 34.4315 33.4913 32.4442 33.6268L8.94633 34.988C7.45444 35.0562 6.74442 34.8523 5.96312 33.899L1.20665 27.979C0.354437 26.8893 0 26.074 0 25.1202V3.88997C0 2.66587 0.56862 1.64475 2.20019 1.50924V1.50924Z" fill="white"/>
</svg>
